<svg version="1.2" xmlns="http://www.w3.org/2000/svg" viewBox="0 0 317 101" width="317" height="101">
	<title>Blue Waves Surfing Club Logo (5)</title>
	<defs>
		<clipPath clipPathUnits="userSpaceOnUse" id="cp1">
			<path d="m8.67 10.3h83v83h-83z"/>
		</clipPath>
		<clipPath clipPathUnits="userSpaceOnUse" id="cp2">
			<path d="m8.67 36.64c0-1.08 0.44-2.08 1.14-2.77 0.72-0.72 1.68-1.16 2.76-1.16 1.08 0 2.08 0.44 2.77 1.16q0.43 0.41 0.69 0.94h8.83v-2.27c0-1.69 0.66-3.18 1.77-4.28 1.1-1.11 2.6-1.78 4.29-1.78h2.26v-8.82q-0.53-0.27-0.94-0.69c-0.71-0.69-1.16-1.69-1.16-2.77 0-1.08 0.45-2.05 1.16-2.77 0.7-0.69 1.69-1.13 2.77-1.13 1.08 0 2.05 0.44 2.74 1.13 0.72 0.72 1.16 1.69 1.16 2.77 0 1.08-0.44 2.08-1.16 2.77q-0.41 0.42-0.94 0.69v8.82h11.51v-8.82c-0.34-0.17-0.66-0.42-0.94-0.69-0.69-0.69-1.14-1.69-1.14-2.77 0-1.08 0.45-2.05 1.14-2.77 0.72-0.69 1.69-1.13 2.77-1.13 1.07 0 2.04 0.44 2.76 1.13 0.72 0.72 1.14 1.69 1.14 2.77 0 1.08-0.42 2.08-1.14 2.77q-0.41 0.42-0.94 0.69v8.82h11.51v-8.82q-0.53-0.27-0.94-0.69c-0.72-0.69-1.13-1.69-1.13-2.77 0-1.08 0.41-2.05 1.13-2.77 0.69-0.69 1.69-1.13 2.77-1.13 1.08 0 2.04 0.44 2.76 1.13 0.7 0.72 1.14 1.69 1.14 2.77 0 1.08-0.44 2.08-1.14 2.77q-0.42 0.42-0.97 0.69v8.82h2.3c1.66 0 3.18 0.67 4.26 1.78 1.11 1.1 1.8 2.59 1.8 4.28v2.27h8.8q0.28-0.53 0.69-0.94c0.72-0.72 1.69-1.16 2.76-1.16 1.09 0 2.06 0.44 2.77 1.16 0.72 0.69 1.13 1.69 1.13 2.77 0 1.08-0.41 2.04-1.13 2.73-0.71 0.72-1.68 1.17-2.77 1.17-1.07 0-2.04-0.45-2.76-1.17q-0.41-0.4-0.69-0.93h-8.8v11.5h8.8c0.19-0.33 0.41-0.66 0.69-0.93 0.72-0.7 1.69-1.14 2.76-1.14 1.09 0 2.06 0.44 2.77 1.14 0.72 0.71 1.13 1.68 1.13 2.76 0 1.08-0.41 2.05-1.13 2.77-0.71 0.72-1.68 1.13-2.77 1.13-1.07 0-2.04-0.41-2.76-1.13q-0.41-0.41-0.69-0.94h-8.8v11.5h8.8q0.28-0.53 0.69-0.93c0.72-0.72 1.69-1.14 2.76-1.14 1.09 0 2.06 0.42 2.77 1.14 0.72 0.69 1.13 1.68 1.13 2.76 0 1.08-0.41 2.05-1.13 2.77-0.71 0.69-1.68 1.13-2.77 1.13-1.07 0-2.04-0.44-2.76-1.13q-0.41-0.42-0.69-0.97h-8.8v2.3c0 1.66-0.69 3.18-1.8 4.26-1.08 1.11-2.6 1.8-4.26 1.8h-2.3v8.8q0.55 0.28 0.97 0.69c0.7 0.72 1.14 1.69 1.14 2.76 0 1.08-0.44 2.05-1.14 2.77-0.72 0.72-1.68 1.13-2.76 1.13-1.08 0-2.08-0.41-2.77-1.13-0.72-0.72-1.13-1.69-1.13-2.77 0-1.07 0.41-2.04 1.13-2.76q0.41-0.41 0.94-0.69v-8.8h-11.51v8.8q0.53 0.28 0.94 0.69c0.72 0.72 1.14 1.69 1.14 2.76 0 1.08-0.42 2.05-1.14 2.77-0.72 0.72-1.69 1.13-2.76 1.13-1.08 0-2.05-0.41-2.77-1.13-0.69-0.72-1.14-1.69-1.14-2.77 0-1.07 0.45-2.04 1.14-2.76q0.43-0.41 0.94-0.69v-8.8h-11.51v8.8q0.53 0.28 0.94 0.69c0.72 0.72 1.16 1.69 1.16 2.76 0 1.08-0.44 2.05-1.16 2.77-0.69 0.72-1.66 1.13-2.74 1.13-1.08 0-2.07-0.41-2.77-1.13-0.71-0.72-1.16-1.69-1.16-2.77 0-1.07 0.45-2.04 1.16-2.76q0.41-0.41 0.94-0.69v-8.8h-2.26c-1.69 0-3.19-0.69-4.29-1.8-1.11-1.08-1.77-2.6-1.77-4.26v-2.3h-8.83c-0.17 0.36-0.42 0.69-0.69 0.97-0.69 0.69-1.69 1.13-2.77 1.13-1.08 0-2.04-0.44-2.76-1.13-0.7-0.72-1.14-1.69-1.14-2.77 0-1.08 0.44-2.07 1.14-2.76 0.72-0.72 1.68-1.14 2.76-1.14 1.08 0 2.08 0.42 2.77 1.14 0.27 0.27 0.52 0.57 0.69 0.93h8.83v-11.5h-8.83c-0.17 0.36-0.42 0.66-0.69 0.94-0.69 0.72-1.69 1.13-2.77 1.13-1.08 0-2.04-0.41-2.76-1.13-0.7-0.72-1.14-1.69-1.14-2.77 0-1.08 0.44-2.05 1.14-2.76 0.72-0.7 1.68-1.14 2.76-1.14 1.08 0 2.08 0.44 2.77 1.14 0.27 0.27 0.52 0.6 0.69 0.93h8.83v-11.5h-8.83c-0.17 0.36-0.42 0.66-0.69 0.93-0.69 0.72-1.69 1.17-2.77 1.17-1.08 0-2.04-0.45-2.76-1.17-0.7-0.69-1.14-1.65-1.14-2.73zm60.73-6.53h-38.48c-0.67 0-1.27 0.28-1.72 0.72-0.44 0.44-0.72 1.05-0.72 1.71v38.49c0 0.66 0.28 1.24 0.72 1.68 0.45 0.45 1.05 0.72 1.72 0.72h38.48c0.66 0 1.25-0.27 1.69-0.72 0.44-0.44 0.72-1.02 0.72-1.68v-38.49c0-0.66-0.28-1.27-0.72-1.71-0.44-0.44-1.03-0.72-1.69-0.72zm-31.65 4.7h24.82c1.24 0 2.38 0.5 3.21 1.33 0.82 0.83 1.32 1.96 1.32 3.23v24.82c0 1.25-0.5 2.38-1.32 3.21-0.83 0.83-1.97 1.33-3.21 1.33h-24.82c-1.27 0-2.41-0.5-3.24-1.33-0.83-0.83-1.33-1.96-1.33-3.21v-24.82c0-1.27 0.5-2.4 1.33-3.23 0.83-0.83 1.97-1.33 3.24-1.33zm24.82 3.63h-24.82q-0.42 0.01-0.67 0.27c-0.16 0.17-0.27 0.39-0.27 0.66v24.82c0 0.25 0.11 0.47 0.27 0.64q0.25 0.26 0.67 0.27h24.82q0.38-0.01 0.63-0.27 0.27-0.26 0.28-0.64v-5.75h-5.23v-3.63h5.23v-6.05h-12.26v-3.66h12.26v-5.73q-0.01-0.41-0.28-0.66-0.25-0.26-0.63-0.27z"/>
		</clipPath>
		<linearGradient id="g1" x2="1" gradientUnits="userSpaceOnUse" gradientTransform="matrix(99.092,30.524,-30.525,99.095,.934,35.419)">
			<stop offset="0" stop-color="#f16b29"/>
			<stop offset=".016" stop-color="#f06b29"/>
			<stop offset=".031" stop-color="#f06b29"/>
			<stop offset=".047" stop-color="#ef6a28"/>
			<stop offset=".063" stop-color="#ee6a28"/>
			<stop offset=".078" stop-color="#ed6928"/>
			<stop offset=".094" stop-color="#ec6927"/>
			<stop offset=".109" stop-color="#eb6827"/>
			<stop offset=".125" stop-color="#ea6826"/>
			<stop offset=".141" stop-color="#e96726"/>
			<stop offset=".156" stop-color="#e96626"/>
			<stop offset=".172" stop-color="#e86625"/>
			<stop offset=".188" stop-color="#e76525"/>
			<stop offset=".203" stop-color="#e66525"/>
			<stop offset=".219" stop-color="#e56424"/>
			<stop offset=".234" stop-color="#e46424"/>
			<stop offset=".236" stop-color="#e36324"/>
			<stop offset=".25" stop-color="#e36323"/>
			<stop offset=".266" stop-color="#e26323"/>
			<stop offset=".281" stop-color="#e26223"/>
			<stop offset=".297" stop-color="#e16223"/>
			<stop offset=".313" stop-color="#e06122"/>
			<stop offset=".328" stop-color="#df6122"/>
			<stop offset=".344" stop-color="#de6021"/>
			<stop offset=".359" stop-color="#dd6021"/>
			<stop offset=".375" stop-color="#dc5f21"/>
			<stop offset=".391" stop-color="#dc5f20"/>
			<stop offset=".406" stop-color="#db5e20"/>
			<stop offset=".422" stop-color="#da5d20"/>
			<stop offset=".438" stop-color="#d95d1f"/>
			<stop offset=".453" stop-color="#d85c1f"/>
			<stop offset=".469" stop-color="#d75c1f"/>
			<stop offset=".484" stop-color="#d65b1e"/>
			<stop offset=".5" stop-color="#d55b1e"/>
			<stop offset=".516" stop-color="#d55a1e"/>
			<stop offset=".531" stop-color="#d45a1d"/>
			<stop offset=".547" stop-color="#d3591d"/>
			<stop offset=".563" stop-color="#d2591c"/>
			<stop offset=".578" stop-color="#d1581c"/>
			<stop offset=".594" stop-color="#d0581c"/>
			<stop offset=".609" stop-color="#cf571b"/>
			<stop offset=".625" stop-color="#ce571b"/>
			<stop offset=".641" stop-color="#ce561b"/>
			<stop offset=".656" stop-color="#cd561a"/>
			<stop offset=".672" stop-color="#cc551a"/>
			<stop offset=".688" stop-color="#cb541a"/>
			<stop offset=".703" stop-color="#ca5419"/>
			<stop offset=".719" stop-color="#c95319"/>
			<stop offset=".734" stop-color="#c85319"/>
			<stop offset=".75" stop-color="#c75218"/>
			<stop offset=".764" stop-color="#c75218"/>
			<stop offset=".766" stop-color="#c65218"/>
			<stop offset=".781" stop-color="#c65117"/>
			<stop offset=".797" stop-color="#c55117"/>
			<stop offset=".813" stop-color="#c45017"/>
			<stop offset=".828" stop-color="#c35016"/>
			<stop offset=".844" stop-color="#c24f16"/>
			<stop offset=".859" stop-color="#c14f16"/>
			<stop offset=".875" stop-color="#c04e15"/>
			<stop offset=".891" stop-color="#c04e15"/>
			<stop offset=".906" stop-color="#bf4d15"/>
			<stop offset=".922" stop-color="#be4c14"/>
			<stop offset=".938" stop-color="#bd4c14"/>
			<stop offset="1" stop-color="#bd4c14"/>
		</linearGradient>
	</defs>
	<style>
		.s0 { fill: url(#g1) } 
		.s1 { fill: #00060e } 
	</style>
	<g id="be187a9acb">
		<g id="Clip-Path" clip-path="url(#cp1)">
			<g>
				<g id="Clip-Path" clip-path="url(#cp2)">
					<g>
						<path class="s0" d="m8.7 10.3v82.9h82.9v-82.9z"/>
					</g>
				</g>
			</g>
		</g>
		<g>
			<g>
				<path class="s1" d="m105.3 61.3h2.2v14.8h-2.2z"/>
			</g>
		</g>
		<g>
			<g>
				<path class="s1" d="m130.6 61.3v14.8h-2.2l-10.6-11.4v11.4h-2.1v-14.8h2.1l10.6 11.2v-11.2z"/>
			</g>
		</g>
		<g>
			<g>
				<path class="s1" d="m153.7 61.3v14.8h-2.2l-10.6-11.4v11.4h-2.1v-14.8h2.1l10.6 11.2v-11.2z"/>
			</g>
		</g>
		<g>
			<g>
				<path class="s1" d="m176.6 65.5v6.4q0 1.2-0.6 2.1-0.6 1-1.6 1.6-0.9 0.5-2.1 0.5h-6.4q-1.1 0-2.1-0.5-1-0.6-1.6-1.6-0.5-0.9-0.5-2.1v-6.4q0-1.2 0.5-2.1 0.6-1 1.6-1.6 1-0.5 2.1-0.5h6.4q1.1 0 2.1 0.5 1 0.6 1.6 1.6 0.6 0.9 0.6 2.1zm-2.2 6.4v-6.4q0-0.9-0.6-1.5-0.6-0.6-1.5-0.6h-6.4q-0.8 0-1.5 0.6-0.6 0.6-0.6 1.5v6.4q0 0.9 0.6 1.5 0.7 0.6 1.5 0.6h6.4q0.9 0 1.5-0.6 0.6-0.6 0.6-1.5z"/>
			</g>
		</g>
		<g>
			<g>
				<path class="s1" d="m189.4 76.1l-5.5-10.6v-4.2h2.2v3.7l4.6 9h1.4l4.6-9v-3.7h2.1v4.2l-5.4 10.6z"/>
			</g>
		</g>
		<g>
			<g>
				<path class="s1" d="m221.3 65.5v10.6h-2.1v-4.2h-10.7v4.2h-2.1v-10.6q0-1.1 0.6-2.1 0.5-0.9 1.5-1.5 1-0.6 2.1-0.6h6.4q1.2 0 2.1 0.5 1 0.6 1.6 1.6 0.6 0.9 0.6 2.1zm-4.3-2.1h-6.4q-0.8 0-1.4 0.6-0.7 0.6-0.7 1.5v4.3h10.7v-4.3q0-0.9-0.7-1.5-0.6-0.6-1.5-0.6z"/>
			</g>
		</g>
		<g>
			<g>
				<path class="s1" d="m243.3 63.4h-6.4v12.7h-2.1v-12.7h-6.4v-2.1h14.9z"/>
			</g>
		</g>
		<g>
			<g>
				<path class="s1" d="m250.5 61.3h2.1v14.8h-2.1z"/>
			</g>
		</g>
		<g>
			<g>
				<path class="s1" d="m275.5 65.5v6.4q0 1.2-0.6 2.1-0.5 1-1.5 1.6-1 0.5-2.2 0.5h-6.3q-1.2 0-2.2-0.5-0.9-0.6-1.5-1.6-0.6-0.9-0.6-2.1v-6.4q0-1.2 0.6-2.1 0.6-1 1.5-1.6 1-0.5 2.2-0.5h6.3q1.2 0 2.1 0.5 1 0.6 1.6 1.6 0.6 0.9 0.6 2.1zm-2.1 6.4v-6.4q0-0.9-0.7-1.5-0.6-0.6-1.5-0.6h-6.3q-0.9 0-1.5 0.6-0.7 0.6-0.7 1.5v6.4q0 0.9 0.7 1.5 0.6 0.6 1.5 0.6h6.3q0.9 0 1.5-0.6 0.7-0.6 0.7-1.5z"/>
			</g>
		</g>
		<g>
			<g>
				<path class="s1" d="m298.4 61.3v14.8h-2.1l-10.7-11.4v11.4h-2.1v-14.8h2.1l10.7 11.2v-11.2z"/>
			</g>
		</g>
		<g>
			<g>
				<path class="s1" d="m115.4 42.6h-7.5l-1.2 3.5h-5.1l7.2-20h5.7l7.2 20h-5.2zm-1.2-3.7l-2.5-7.4-2.5 7.4z"/>
			</g>
		</g>
		<g>
			<g>
				<path class="s1" d="m128.8 26.1v20h-4.9v-20z"/>
			</g>
		</g>
		<g>
			<g>
				<path class="s1" d=""/>
			</g>
		</g>
		<g>
			<g>
				<path class="s1" d="m153.7 46.1l-1.8-1.8q-2.8 2.1-6.7 2.1-2.3 0-4-0.7-1.7-0.8-2.6-2.2-1-1.3-1-3.2 0-1.9 1.1-3.4 1-1.5 3-2.5-0.7-0.9-1.1-1.7-0.3-0.9-0.3-1.9 0-1.4 0.8-2.6 0.7-1.2 2.1-1.8 1.4-0.7 3.4-0.7 2 0 3.3 0.7 1.4 0.7 2.1 1.9 0.7 1.2 0.6 2.6h-4.6q0-0.7-0.4-1.1-0.4-0.5-1.1-0.5-0.7 0-1.1 0.5-0.5 0.4-0.5 1 0 0.6 0.4 1.2 0.4 0.7 1.2 1.5l4.9 4.8q0-0.1 0.2-0.3 0.1-0.2 0.2-0.5l1-1.8h4.9l-1.4 2.5q-0.7 1.7-1.7 3.2l4.8 4.7zm-8.3-3.6q1.9 0 3.4-1.1l-4.4-4.3q-2.1 1.1-2.1 2.9 0 1.1 0.8 1.8 0.9 0.7 2.3 0.7z"/>
			</g>
		</g>
		<g>
			<g>
				<path class="s1" d=""/>
			</g>
		</g>
		<g>
			<g>
				<path class="s1" d="m177.4 46.1l-4.1-7.5h-1.2v7.5h-4.9v-20h8.2q2.4 0 4.1 0.8 1.6 0.9 2.5 2.3 0.8 1.4 0.8 3.2 0 2-1.2 3.6-1.1 1.6-3.3 2.2l4.7 7.9zm-5.4-11h3q1.4 0 2.1-0.6 0.6-0.7 0.6-1.9 0-1.1-0.6-1.8-0.7-0.6-2.1-0.6h-3z"/>
			</g>
		</g>
		<g>
			<g>
				<path class="s1" d="m195.3 46.3q-2.8 0-5.2-1.3-2.3-1.3-3.7-3.6-1.4-2.4-1.4-5.4 0-2.9 1.4-5.2 1.4-2.4 3.7-3.7 2.4-1.3 5.2-1.3 2.8 0 5.2 1.3 2.3 1.3 3.7 3.7 1.4 2.3 1.4 5.2 0 3-1.4 5.4-1.4 2.3-3.7 3.6-2.4 1.3-5.2 1.3zm0-4.4q2.4 0 3.8-1.6 1.5-1.6 1.5-4.3 0-2.6-1.5-4.2-1.4-1.6-3.8-1.6-2.4 0-3.9 1.6-1.4 1.6-1.4 4.2 0 2.7 1.4 4.3 1.5 1.6 3.9 1.6z"/>
			</g>
		</g>
		<g>
			<g>
				<path class="s1" d="m220.4 35.9q1.7 0.3 2.8 1.7 1.1 1.3 1.1 3.1 0 2.5-1.8 4-1.8 1.4-4.9 1.4h-9.3v-20h9q3 0 4.8 1.4 1.7 1.4 1.7 3.8 0 1.8-0.9 2.9-1 1.2-2.5 1.7zm-7.3-1.7h3.3q1.1 0 1.8-0.5 0.6-0.5 0.6-1.6 0-1-0.6-1.6-0.7-0.5-1.8-0.5h-3.3zm3.7 8q1.2 0 1.8-0.5 0.7-0.6 0.7-1.7 0-1-0.7-1.6-0.7-0.6-1.9-0.6h-3.6v4.4z"/>
			</g>
		</g>
		<g>
			<g>
				<path class="s1" d="m236.6 46.3q-2.9 0-5.2-1.3-2.4-1.3-3.8-3.6-1.3-2.4-1.3-5.4 0-2.9 1.3-5.2 1.4-2.4 3.8-3.7 2.3-1.3 5.2-1.3 2.8 0 5.1 1.3 2.4 1.3 3.7 3.7 1.4 2.3 1.4 5.2 0 3-1.4 5.4-1.3 2.3-3.7 3.6-2.3 1.3-5.1 1.3zm0-4.4q2.4 0 3.8-1.6 1.4-1.6 1.4-4.3 0-2.6-1.4-4.2-1.4-1.6-3.8-1.6-2.5 0-3.9 1.6-1.4 1.6-1.4 4.2 0 2.7 1.4 4.3 1.4 1.6 3.9 1.6z"/>
			</g>
		</g>
		<g>
			<g>
				<path class="s1" d="m263.9 26.1v3.9h-5.3v16.1h-4.8v-16.1h-5.4v-3.9z"/>
			</g>
		</g>
		<g>
			<g>
				<path class="s1" d="m271.3 26.1v20h-4.9v-20z"/>
			</g>
		</g>
		<g>
			<g>
				<path class="s1" d="m274 36.1q0-3 1.3-5.3 1.3-2.3 3.6-3.6 2.2-1.3 5.2-1.3 3.5 0 6.1 1.9 2.5 1.8 3.4 5.1h-5.4q-0.6-1.3-1.7-1.9-1.1-0.7-2.5-0.7-2.2 0-3.6 1.6-1.4 1.6-1.4 4.2 0 2.6 1.4 4.2 1.4 1.6 3.6 1.6 1.4 0 2.5-0.7 1.1-0.7 1.7-1.9h5.4q-0.9 3.2-3.4 5.1-2.6 1.9-6.1 1.9-3 0-5.2-1.3-2.3-1.3-3.6-3.6-1.3-2.4-1.3-5.3z"/>
			</g>
		</g>
		<g>
			<g>
				<path class="s1" d="m303.8 46.3q-2.2 0-3.9-0.7-1.8-0.7-2.8-2.1-1.1-1.4-1.1-3.4h5.2q0.1 1.2 0.7 1.7 0.7 0.6 1.8 0.6 1.1 0 1.7-0.5 0.6-0.5 0.6-1.4 0-0.7-0.5-1.2-0.5-0.5-1.2-0.8-0.7-0.3-2.1-0.7-1.9-0.6-3.2-1.2-1.2-0.6-2.1-1.8-0.9-1.1-0.9-3 0-2.8 2.1-4.4 2-1.6 5.3-1.6 3.3 0 5.3 1.6 2 1.6 2.2 4.4h-5.3q-0.1-1-0.7-1.5-0.7-0.6-1.7-0.6-0.9 0-1.4 0.5-0.6 0.5-0.6 1.3 0 1 0.9 1.6 0.9 0.5 2.9 1.1 1.9 0.7 3.1 1.3 1.3 0.6 2.1 1.7 0.9 1.2 0.9 3 0 1.7-0.8 3.1-0.9 1.4-2.6 2.2-1.6 0.8-3.9 0.8z"/>
			</g>
		</g>
	</g>
</svg>